<mxfile host="app.diagrams.net" agent="Mozilla/5.0 (Windows NT 10.0; Win64; x64) AppleWebKit/537.36 (KHTML, like Gecko) Chrome/141.0.0.0 Safari/537.36" version="28.2.5">
  <diagram name="Page-1" id="JApCfsV2V6KIxvaLFB2H">
    <mxGraphModel dx="4074" dy="2220" grid="1" gridSize="10" guides="1" tooltips="1" connect="1" arrows="1" fold="1" page="1" pageScale="1" pageWidth="3300" pageHeight="4681" math="0" shadow="0">
      <root>
        <mxCell id="0" />
        <mxCell id="1" parent="0" />
        <mxCell id="7l4TaeEX2lvKkKk926x1-4" value="" style="edgeStyle=orthogonalEdgeStyle;rounded=0;orthogonalLoop=1;jettySize=auto;html=1;" edge="1" parent="1" source="7l4TaeEX2lvKkKk926x1-1" target="7l4TaeEX2lvKkKk926x1-2">
          <mxGeometry relative="1" as="geometry" />
        </mxCell>
        <mxCell id="7l4TaeEX2lvKkKk926x1-1" value="START" style="rounded=1;whiteSpace=wrap;html=1;" vertex="1" parent="1">
          <mxGeometry x="503" y="190" width="120" height="60" as="geometry" />
        </mxCell>
        <mxCell id="7l4TaeEX2lvKkKk926x1-6" value="" style="edgeStyle=orthogonalEdgeStyle;rounded=0;orthogonalLoop=1;jettySize=auto;html=1;" edge="1" parent="1" source="7l4TaeEX2lvKkKk926x1-2" target="7l4TaeEX2lvKkKk926x1-5">
          <mxGeometry relative="1" as="geometry" />
        </mxCell>
        <mxCell id="7l4TaeEX2lvKkKk926x1-2" value="int n&lt;div&gt;int m&lt;/div&gt;" style="shape=parallelogram;perimeter=parallelogramPerimeter;whiteSpace=wrap;html=1;fixedSize=1;" vertex="1" parent="1">
          <mxGeometry x="493" y="320" width="140" height="60" as="geometry" />
        </mxCell>
        <mxCell id="7l4TaeEX2lvKkKk926x1-8" value="" style="edgeStyle=orthogonalEdgeStyle;rounded=0;orthogonalLoop=1;jettySize=auto;html=1;" edge="1" parent="1" source="7l4TaeEX2lvKkKk926x1-5" target="7l4TaeEX2lvKkKk926x1-7">
          <mxGeometry relative="1" as="geometry" />
        </mxCell>
        <mxCell id="7l4TaeEX2lvKkKk926x1-5" value="say = 0&lt;div&gt;i = n+1&lt;/div&gt;" style="whiteSpace=wrap;html=1;" vertex="1" parent="1">
          <mxGeometry x="503" y="460" width="120" height="60" as="geometry" />
        </mxCell>
        <mxCell id="7l4TaeEX2lvKkKk926x1-10" value="" style="edgeStyle=orthogonalEdgeStyle;rounded=0;orthogonalLoop=1;jettySize=auto;html=1;" edge="1" parent="1" source="7l4TaeEX2lvKkKk926x1-7">
          <mxGeometry relative="1" as="geometry">
            <mxPoint x="563" y="760" as="targetPoint" />
          </mxGeometry>
        </mxCell>
        <mxCell id="7l4TaeEX2lvKkKk926x1-27" value="" style="edgeStyle=orthogonalEdgeStyle;rounded=0;orthogonalLoop=1;jettySize=auto;html=1;" edge="1" parent="1" source="7l4TaeEX2lvKkKk926x1-7" target="7l4TaeEX2lvKkKk926x1-26">
          <mxGeometry relative="1" as="geometry" />
        </mxCell>
        <mxCell id="7l4TaeEX2lvKkKk926x1-7" value="while (i &amp;lt; m)" style="shape=hexagon;perimeter=hexagonPerimeter2;whiteSpace=wrap;html=1;fixedSize=1;" vertex="1" parent="1">
          <mxGeometry x="503" y="590" width="120" height="80" as="geometry" />
        </mxCell>
        <mxCell id="7l4TaeEX2lvKkKk926x1-15" value="" style="edgeStyle=orthogonalEdgeStyle;rounded=0;orthogonalLoop=1;jettySize=auto;html=1;" edge="1" parent="1" source="7l4TaeEX2lvKkKk926x1-11" target="7l4TaeEX2lvKkKk926x1-14">
          <mxGeometry relative="1" as="geometry" />
        </mxCell>
        <mxCell id="7l4TaeEX2lvKkKk926x1-19" value="True" style="edgeLabel;html=1;align=center;verticalAlign=middle;resizable=0;points=[];" vertex="1" connectable="0" parent="7l4TaeEX2lvKkKk926x1-15">
          <mxGeometry x="-0.0634" relative="1" as="geometry">
            <mxPoint as="offset" />
          </mxGeometry>
        </mxCell>
        <mxCell id="7l4TaeEX2lvKkKk926x1-23" style="edgeStyle=orthogonalEdgeStyle;rounded=0;orthogonalLoop=1;jettySize=auto;html=1;entryX=1;entryY=0.5;entryDx=0;entryDy=0;" edge="1" parent="1" source="7l4TaeEX2lvKkKk926x1-11" target="7l4TaeEX2lvKkKk926x1-16">
          <mxGeometry relative="1" as="geometry" />
        </mxCell>
        <mxCell id="7l4TaeEX2lvKkKk926x1-24" value="False" style="edgeLabel;html=1;align=center;verticalAlign=middle;resizable=0;points=[];" vertex="1" connectable="0" parent="7l4TaeEX2lvKkKk926x1-23">
          <mxGeometry x="-0.031" y="-2" relative="1" as="geometry">
            <mxPoint as="offset" />
          </mxGeometry>
        </mxCell>
        <mxCell id="7l4TaeEX2lvKkKk926x1-11" value="if (i % 2 != 0)" style="rhombus;whiteSpace=wrap;html=1;" vertex="1" parent="1">
          <mxGeometry x="503" y="760" width="120" height="110" as="geometry" />
        </mxCell>
        <mxCell id="7l4TaeEX2lvKkKk926x1-22" style="edgeStyle=orthogonalEdgeStyle;rounded=0;orthogonalLoop=1;jettySize=auto;html=1;entryX=0;entryY=0.5;entryDx=0;entryDy=0;" edge="1" parent="1" source="7l4TaeEX2lvKkKk926x1-14" target="7l4TaeEX2lvKkKk926x1-7">
          <mxGeometry relative="1" as="geometry">
            <mxPoint x="330" y="620" as="targetPoint" />
            <Array as="points">
              <mxPoint x="220" y="1005" />
              <mxPoint x="220" y="630" />
            </Array>
          </mxGeometry>
        </mxCell>
        <mxCell id="7l4TaeEX2lvKkKk926x1-14" value="say++&lt;div&gt;i++&lt;/div&gt;" style="whiteSpace=wrap;html=1;" vertex="1" parent="1">
          <mxGeometry x="503" y="975" width="120" height="60" as="geometry" />
        </mxCell>
        <mxCell id="7l4TaeEX2lvKkKk926x1-25" style="edgeStyle=orthogonalEdgeStyle;rounded=0;orthogonalLoop=1;jettySize=auto;html=1;entryX=0;entryY=0.5;entryDx=0;entryDy=0;" edge="1" parent="1" source="7l4TaeEX2lvKkKk926x1-16" target="7l4TaeEX2lvKkKk926x1-7">
          <mxGeometry relative="1" as="geometry">
            <Array as="points">
              <mxPoint x="330" y="630" />
            </Array>
          </mxGeometry>
        </mxCell>
        <mxCell id="7l4TaeEX2lvKkKk926x1-16" value="i++" style="whiteSpace=wrap;html=1;" vertex="1" parent="1">
          <mxGeometry x="270" y="785" width="120" height="60" as="geometry" />
        </mxCell>
        <mxCell id="7l4TaeEX2lvKkKk926x1-29" style="edgeStyle=orthogonalEdgeStyle;rounded=0;orthogonalLoop=1;jettySize=auto;html=1;entryX=0;entryY=0.5;entryDx=0;entryDy=0;" edge="1" parent="1" source="7l4TaeEX2lvKkKk926x1-26" target="7l4TaeEX2lvKkKk926x1-28">
          <mxGeometry relative="1" as="geometry" />
        </mxCell>
        <mxCell id="7l4TaeEX2lvKkKk926x1-26" value="&quot;Tek ededlerin sayi: &quot; +say" style="shape=document;whiteSpace=wrap;html=1;boundedLbl=1;" vertex="1" parent="1">
          <mxGeometry x="720" y="575" width="177" height="110" as="geometry" />
        </mxCell>
        <mxCell id="7l4TaeEX2lvKkKk926x1-28" value="END" style="rounded=1;whiteSpace=wrap;html=1;" vertex="1" parent="1">
          <mxGeometry x="1000" y="600" width="120" height="60" as="geometry" />
        </mxCell>
        <mxCell id="7l4TaeEX2lvKkKk926x1-31" value="" style="edgeStyle=orthogonalEdgeStyle;rounded=0;orthogonalLoop=1;jettySize=auto;html=1;" edge="1" parent="1" source="7l4TaeEX2lvKkKk926x1-32" target="7l4TaeEX2lvKkKk926x1-33">
          <mxGeometry relative="1" as="geometry" />
        </mxCell>
        <mxCell id="7l4TaeEX2lvKkKk926x1-32" value="START" style="rounded=1;whiteSpace=wrap;html=1;" vertex="1" parent="1">
          <mxGeometry x="1792" y="190" width="120" height="60" as="geometry" />
        </mxCell>
        <mxCell id="7l4TaeEX2lvKkKk926x1-35" value="" style="edgeStyle=orthogonalEdgeStyle;rounded=0;orthogonalLoop=1;jettySize=auto;html=1;" edge="1" parent="1" source="7l4TaeEX2lvKkKk926x1-33" target="7l4TaeEX2lvKkKk926x1-34">
          <mxGeometry relative="1" as="geometry" />
        </mxCell>
        <mxCell id="7l4TaeEX2lvKkKk926x1-33" value="int n&lt;div&gt;int m&lt;/div&gt;" style="shape=parallelogram;perimeter=parallelogramPerimeter;whiteSpace=wrap;html=1;fixedSize=1;" vertex="1" parent="1">
          <mxGeometry x="1782" y="320" width="140" height="60" as="geometry" />
        </mxCell>
        <mxCell id="7l4TaeEX2lvKkKk926x1-37" value="" style="edgeStyle=orthogonalEdgeStyle;rounded=0;orthogonalLoop=1;jettySize=auto;html=1;" edge="1" parent="1" source="7l4TaeEX2lvKkKk926x1-34" target="7l4TaeEX2lvKkKk926x1-36">
          <mxGeometry relative="1" as="geometry" />
        </mxCell>
        <mxCell id="7l4TaeEX2lvKkKk926x1-34" value="cem = 0" style="whiteSpace=wrap;html=1;" vertex="1" parent="1">
          <mxGeometry x="1792" y="460" width="120" height="60" as="geometry" />
        </mxCell>
        <mxCell id="7l4TaeEX2lvKkKk926x1-39" value="" style="edgeStyle=orthogonalEdgeStyle;rounded=0;orthogonalLoop=1;jettySize=auto;html=1;" edge="1" parent="1" source="7l4TaeEX2lvKkKk926x1-36" target="7l4TaeEX2lvKkKk926x1-38">
          <mxGeometry relative="1" as="geometry" />
        </mxCell>
        <mxCell id="7l4TaeEX2lvKkKk926x1-51" style="edgeStyle=orthogonalEdgeStyle;rounded=0;orthogonalLoop=1;jettySize=auto;html=1;entryX=0;entryY=0.5;entryDx=0;entryDy=0;" edge="1" parent="1" source="7l4TaeEX2lvKkKk926x1-36" target="7l4TaeEX2lvKkKk926x1-49">
          <mxGeometry relative="1" as="geometry" />
        </mxCell>
        <mxCell id="7l4TaeEX2lvKkKk926x1-36" value="for (int i = n + 1; i &amp;lt; m; i++)" style="shape=hexagon;perimeter=hexagonPerimeter2;whiteSpace=wrap;html=1;fixedSize=1;" vertex="1" parent="1">
          <mxGeometry x="1772" y="590" width="160" height="90" as="geometry" />
        </mxCell>
        <mxCell id="7l4TaeEX2lvKkKk926x1-41" value="" style="edgeStyle=orthogonalEdgeStyle;rounded=0;orthogonalLoop=1;jettySize=auto;html=1;" edge="1" parent="1" source="7l4TaeEX2lvKkKk926x1-38" target="7l4TaeEX2lvKkKk926x1-40">
          <mxGeometry relative="1" as="geometry" />
        </mxCell>
        <mxCell id="7l4TaeEX2lvKkKk926x1-42" value="True" style="edgeLabel;html=1;align=center;verticalAlign=middle;resizable=0;points=[];" vertex="1" connectable="0" parent="7l4TaeEX2lvKkKk926x1-41">
          <mxGeometry x="0.0032" y="-2" relative="1" as="geometry">
            <mxPoint as="offset" />
          </mxGeometry>
        </mxCell>
        <mxCell id="7l4TaeEX2lvKkKk926x1-56" style="edgeStyle=orthogonalEdgeStyle;rounded=0;orthogonalLoop=1;jettySize=auto;html=1;entryX=0;entryY=0.75;entryDx=0;entryDy=0;" edge="1" parent="1" source="7l4TaeEX2lvKkKk926x1-38" target="7l4TaeEX2lvKkKk926x1-36">
          <mxGeometry relative="1" as="geometry">
            <mxPoint x="1660" y="720" as="targetPoint" />
            <Array as="points">
              <mxPoint x="1700" y="833" />
              <mxPoint x="1700" y="655" />
            </Array>
          </mxGeometry>
        </mxCell>
        <mxCell id="7l4TaeEX2lvKkKk926x1-57" value="False" style="edgeLabel;html=1;align=center;verticalAlign=middle;resizable=0;points=[];" vertex="1" connectable="0" parent="7l4TaeEX2lvKkKk926x1-56">
          <mxGeometry x="0.1602" y="-2" relative="1" as="geometry">
            <mxPoint y="25" as="offset" />
          </mxGeometry>
        </mxCell>
        <mxCell id="7l4TaeEX2lvKkKk926x1-38" value="if( i %2 != 0)" style="rhombus;whiteSpace=wrap;html=1;" vertex="1" parent="1">
          <mxGeometry x="1778" y="770" width="148" height="125" as="geometry" />
        </mxCell>
        <mxCell id="7l4TaeEX2lvKkKk926x1-55" style="edgeStyle=orthogonalEdgeStyle;rounded=0;orthogonalLoop=1;jettySize=auto;html=1;entryX=0;entryY=0.5;entryDx=0;entryDy=0;" edge="1" parent="1" source="7l4TaeEX2lvKkKk926x1-40" target="7l4TaeEX2lvKkKk926x1-36">
          <mxGeometry relative="1" as="geometry">
            <mxPoint x="1580" y="862.5" as="targetPoint" />
            <Array as="points">
              <mxPoint x="1590" y="1037" />
              <mxPoint x="1590" y="635" />
            </Array>
          </mxGeometry>
        </mxCell>
        <mxCell id="7l4TaeEX2lvKkKk926x1-40" value="cem += i" style="whiteSpace=wrap;html=1;" vertex="1" parent="1">
          <mxGeometry x="1792" y="1007.5" width="120" height="60" as="geometry" />
        </mxCell>
        <mxCell id="7l4TaeEX2lvKkKk926x1-48" style="edgeStyle=orthogonalEdgeStyle;rounded=0;orthogonalLoop=1;jettySize=auto;html=1;entryX=0;entryY=0.5;entryDx=0;entryDy=0;" edge="1" parent="1" source="7l4TaeEX2lvKkKk926x1-49" target="7l4TaeEX2lvKkKk926x1-50">
          <mxGeometry relative="1" as="geometry" />
        </mxCell>
        <mxCell id="7l4TaeEX2lvKkKk926x1-49" value="&quot;Tek ededlerin cemi: &quot; +cem" style="shape=document;whiteSpace=wrap;html=1;boundedLbl=1;" vertex="1" parent="1">
          <mxGeometry x="2070" y="580" width="177" height="110" as="geometry" />
        </mxCell>
        <mxCell id="7l4TaeEX2lvKkKk926x1-50" value="END" style="rounded=1;whiteSpace=wrap;html=1;" vertex="1" parent="1">
          <mxGeometry x="2370" y="605" width="120" height="60" as="geometry" />
        </mxCell>
      </root>
    </mxGraphModel>
  </diagram>
</mxfile>
